<?xml version="1.0" encoding="UTF-8"?>
<svg width="190px" height="40px" viewBox="0 0 190 40" version="1.1" xmlns="http://www.w3.org/2000/svg" xmlns:xlink="http://www.w3.org/1999/xlink">
    <title>logo-joomla-solid</title>
    <defs>
        <polygon id="path-1" points="0 38.518285 189.92366 38.518285 189.92366 -0.000325694711 0 -0.000325694711"></polygon>
    </defs>
    <g id="Shared-Design" stroke="none" stroke-width="1" fill="none" fill-rule="evenodd">
        <g id="HG-Concepts---Shared-Page-XL" transform="translate(-885.000000, -3372.000000)">
            <g id=".o-apps__full-xl" transform="translate(325.000000, 2975.000000)">
                <g id=".o-features--large-copy" transform="translate(98.000000, 397.500000)">
                    <g id=".a-text--h1">
                        <g id="Group-8">
                            <g id="logo-joomla-solid" transform="translate(462.000000, 0.000000)">
                                <path d="M6.94869666,19.434464 L6.20676411,18.6938342 C3.90670806,16.3931268 3.19473942,13.1068671 4.06564708,10.1925508 C1.76624242,9.67339347 0.0485285119,7.61695707 0.0485285119,5.15926478 C0.0491799014,2.31008745 2.35900679,0.000260555769 5.20753273,0.000260555769 C7.77270428,0.000911945191 9.89949074,1.87235375 10.2994438,4.32353215 C13.0828308,3.67083995 16.1287278,4.43036001 18.2991573,6.60078957 L18.5955395,6.89652037 L14.7881684,10.7025888 L14.4924376,10.4055552 C13.2574032,9.17117223 11.2543807,9.17117223 10.0180436,10.406858 C8.77844955,11.6471034 8.7810551,13.6559884 10.0115297,14.8871144 L10.7560678,15.6303497 L14.5640904,19.434464 L18.5916312,23.4593992 L14.7881684,27.266119 L10.7560678,23.239881 L6.94869666,19.434464" id="Fill-1" fill="#FFFFFF"></path>
                                <path d="M11.2075458,15.1790671 L15.2376922,11.1515263 L19.0457148,7.34806351 L19.7882987,6.60678235 C22.0798867,4.31584575 25.3459532,3.59410627 28.2485445,4.44677503 C28.5957351,1.93501742 30.7518341,-0.000260555769 33.3593459,-0.000260555769 C36.2085232,-0.000260555769 38.5196529,2.30891495 38.5190017,5.15939506 C38.5190017,7.77798053 36.5674388,9.94189619 34.0387451,10.2747562 C34.869918,13.1662738 34.1455729,16.4088904 31.8696183,18.6874506 L31.5725847,18.9844841 L27.7678191,15.1764616 L28.0622471,14.8813822 C29.2985843,13.6456964 29.2985843,11.6420226 28.0635499,10.4069882 C26.8317725,9.17651362 24.8333098,9.17390806 23.5930643,10.4135021 L22.8511318,11.1554347 L19.0424578,14.9608517 L15.014917,18.9844841 L11.2075458,15.1790671" id="Fill-3" fill="#FFFFFF"></path>
                                <path d="M28.3510081,34.3880852 C25.4230126,35.2889568 22.1061377,34.5802451 19.7884941,32.2632529 L19.497323,31.9720819 L23.3014373,28.1634079 L23.5932597,28.4571845 C24.8295968,29.6922189 26.8339221,29.6922189 28.0689564,28.4578359 C29.3000825,27.2260585 29.3020366,25.2275958 28.0624426,23.9873503 L27.3185558,23.2428122 L23.5131388,19.4341383 L19.4927633,15.4105058 L23.3014373,11.6063916 L27.3185558,15.6274185 L31.1213673,19.4341383 L31.8691623,20.1825847 C34.0578308,22.3719046 34.8140939,25.450371 34.133392,28.2506941 C36.6392871,28.6037472 38.5667484,30.7572406 38.5667484,33.3601927 C38.5667484,36.2100214 36.2556187,38.5185456 33.4077441,38.5185456 C30.9103171,38.5185456 28.8271737,36.7454635 28.3510081,34.3880852" id="Fill-5" fill="#FFFFFF"></path>
                                <path d="M26.8669475,23.6935737 L22.8504804,27.7146006 L19.0457148,31.5226232 L18.2992225,32.268464 C16.1014346,34.4675547 13.0021237,35.2146984 10.1887728,34.5164089 C9.66310152,36.8092997 7.61057345,38.5172428 5.15939506,38.5185456 C2.30956633,38.5185456 -0.000911945191,36.2087187 -0.000260693469,33.3601927 C-0.000260693469,30.9207393 1.69335194,28.8753765 3.96865519,28.3386317 C3.24821849,25.5116016 3.99405938,22.3888407 6.20682925,20.1767222 L6.49800032,19.8862025 L10.3060229,23.6909681 L10.0115949,23.9827906 C8.77656052,25.2197791 8.77656052,27.220196 10.0128976,28.4578359 C11.2524917,29.6980814 13.2613767,29.6948244 14.4925027,28.463047 L15.2376922,27.7172062 L19.0424578,23.9104864 L23.0628333,19.8862025 L26.8669475,23.6935737" id="Fill-8" fill="#FFFFFF"></path>
                                <path d="M57.9008332,7.61207165 L57.9008332,23.7535015 C57.9008332,25.1800444 57.4670079,26.3903259 56.6130363,27.3465656 C55.5708133,28.5125526 54.0133412,29.1040142 51.9855659,29.1040142 L50.167538,28.969828 L44.689353,28.0709106 L43.7793619,30.1299526 L49.3461359,30.9897866 C50.3844507,31.149377 51.3524154,31.2301493 52.2213689,31.2301493 C55.2333935,31.2301493 57.5067426,30.3839945 58.9788827,28.7177403 C60.1644115,27.3563364 60.7656439,25.5767405 60.7656439,23.4284582 L60.7656439,7.61207165 L57.9008332,7.61207165" id="Fill-11" fill="#FFFFFF"></path>
                                <path d="M81.9380148,16.5254239 C79.7552089,15.3333813 77.1470456,14.7301947 74.1793154,14.7301947 C71.2382922,14.7301947 68.6236151,15.3333813 66.4219188,16.5241212 L66.4212674,16.5241212 C63.6424401,18.0372988 62.2315307,20.2194534 62.2315307,23.0113084 C62.2315307,25.8031635 63.6424401,27.9807583 66.4219188,29.4822109 C68.6236151,30.6736022 71.2317783,31.275486 74.1793154,31.275486 C77.1340179,31.275486 79.7421811,30.6775105 81.9243357,29.4978443 C84.6790615,27.9957403 86.0834571,25.8129343 86.0834571,23.0113084 C86.0834571,20.2103339 84.6862268,18.0275279 81.9380148,16.5254239 M80.2548246,27.8452693 C78.5709829,28.8034632 76.5282257,29.2880969 74.1793154,29.2880969 C71.7769912,29.2880969 69.7212062,28.8125826 68.0575576,27.8771874 C66.0330393,26.7437698 65.0513955,25.1504713 65.0513955,23.002189 C65.0513955,20.8864761 66.0610491,19.2469289 68.0575576,18.1304475 C69.7212062,17.1924467 71.7769912,16.7175838 74.1793154,16.7175838 C76.5614466,16.7175838 78.6113691,17.1924467 80.2880454,18.1304475 C82.2637096,19.2560484 83.2622895,20.8955956 83.2622895,23.002189 C83.2622895,25.0892407 82.2506818,26.7183656 80.2548246,27.8452693" id="Fill-13" fill="#FFFFFF"></path>
                                <path d="M107.276347,16.5254239 C105.093541,15.3333813 102.486029,14.7301947 99.5182988,14.7301947 C96.5766242,14.7301947 93.961947,15.3333813 91.7595994,16.5241212 C88.9781666,18.0372988 87.5672571,20.2194534 87.5672571,23.0113084 C87.5672571,25.8031635 88.9781666,27.9807583 91.7595994,29.4822109 C93.961947,30.6736022 96.5701103,31.275486 99.5182988,31.275486 C102.47235,31.275486 105.073999,30.6775105 107.256805,29.4978443 C110.018045,27.9957403 111.415275,25.8129343 111.415275,23.0113084 C111.415275,20.2090311 110.02521,18.0275279 107.276347,16.5254239 M105.593157,27.8452693 C103.909315,28.8034632 101.866558,29.2880969 99.5182988,29.2880969 C97.1153232,29.2880969 95.0595382,28.8125826 93.3958896,27.8771874 C91.3733255,26.7437698 90.3884247,25.1504713 90.3884247,23.002189 C90.3884247,20.8864761 91.4000324,19.2469289 93.3958896,18.1304475 C95.0595382,17.1924467 97.1153232,16.7175838 99.5182988,16.7175838 C101.893265,16.7175838 103.949701,17.1924467 105.626377,18.1304475 C107.596179,19.2560484 108.600622,20.8955956 108.600622,23.002189 C108.600622,25.0892407 107.589014,26.7183656 105.593157,27.8452693" id="Fill-15" fill="#FFFFFF"></path>
                                <path d="M142.237003,16.1221488 C140.679531,15.1997813 138.683674,14.7301296 136.308057,14.7301296 C133.287564,14.7301296 130.83834,15.6805067 129.008587,17.5245902 C127.238762,15.6805067 124.796703,14.7301296 121.72931,14.7301296 C119.25403,14.7301296 117.23798,15.2518925 115.680508,16.2452614 L115.680508,14.9607214 L112.952489,14.9607214 L112.952489,30.9985804 L115.680508,30.9985804 L115.680508,20.0246228 C115.867457,19.2331846 116.385963,18.5068854 117.230815,17.9063044 C118.348599,17.1174718 119.826602,16.7175187 121.628996,16.7175187 C123.213175,16.7175187 124.583699,17.0451676 125.688455,17.6887403 C127.01273,18.4437007 127.651091,19.5002543 127.651091,20.9202832 L127.651091,30.9985804 L130.332862,30.9985804 L130.332862,20.9202832 C130.332862,19.4983001 130.971875,18.435884 132.289635,17.673107 C133.406768,17.0399564 134.790971,16.7175187 136.394692,16.7175187 C137.998412,16.7175187 139.37545,17.0451676 140.48672,17.6900431 C141.804481,18.4437007 142.442842,19.5002543 142.442842,20.9202832 L142.442842,30.9985804 L145.164999,30.9985804 L145.164999,21.2954835 C145.164999,19.013015 144.179447,17.2705483 142.237003,16.1221488" id="Fill-17" fill="#FFFFFF"></path>
                                <mask id="mask-2" fill="white">
                                    <use xlink:href="#path-1"></use>
                                </mask>
                                <g id="Clip-20"></g>
                                <polygon id="Fill-19" fill="#FFFFFF" mask="url(#mask-2)" points="147.367086 30.9986455 150.088591 30.9986455 150.088591 7.61181109 147.367086 7.61181109"></polygon>
                                <path d="M173.364363,14.9609168 L173.364363,17.7065232 C171.029132,15.749098 167.954574,14.730325 164.175864,14.730325 C161.114334,14.730325 158.493143,15.3139699 156.3631,16.4617181 C153.661788,17.931904 152.291264,20.1362058 152.291264,23.0107873 C152.291264,25.8456341 153.69566,28.0323484 156.463413,29.5136079 C158.639706,30.6835033 161.268062,31.2756163 164.268362,31.2756163 C165.778934,31.2756163 167.236092,31.0964842 168.606615,30.7440825 C170.536682,30.2457696 172.127375,29.495369 173.364363,28.5280557 L173.364363,30.9987758 L176.092382,30.9987758 L176.092382,14.9609168 L173.364363,14.9609168 M155.112432,23.0023192 C155.112432,20.8768356 156.12404,19.2320773 158.106869,18.1136416 C159.777031,17.1880173 161.846496,16.7177141 164.261848,16.7177141 C167.24912,16.7177141 169.585002,17.4459675 171.208264,18.8855381 C172.639367,20.1557475 173.364363,21.8122308 173.364363,23.8041796 L173.364363,25.7036312 C172.219872,26.967978 170.550361,27.9659066 168.394262,28.6628933 C167.129915,29.0791312 165.739199,29.2882272 164.261848,29.2882272 C161.806761,29.2882272 159.724269,28.8289976 158.093841,27.9235663 C156.084305,26.8012224 155.112432,25.1922905 155.112432,23.0023192" id="Fill-21" fill="#FFFFFF" mask="url(#mask-2)"></path>
                                <path d="M180.484375,25.7230426 L183.20588,25.7230426 L183.20588,7.24247329 L180.484375,7.24247329 L180.484375,25.7230426 Z M181.875092,27.9937861 C179.978897,27.9937861 179.692286,28.9793383 179.692286,29.5649374 C179.692286,30.1694268 179.978897,31.1829887 181.875092,31.1829887 C183.758259,31.1829887 184.037705,30.1694268 184.037705,29.5649374 C184.037705,28.9793383 183.758259,27.9937861 181.875092,27.9937861 L181.875092,27.9937861 Z" id="Fill-22" fill="#FFFFFF" mask="url(#mask-2)"></path>
                                <path d="M189.255334,10.4542791 C189.15958,10.696596 189.026045,10.905692 188.856032,11.0809157 C188.685368,11.2567909 188.486043,11.3929313 188.25936,11.4893369 C188.032025,11.5857425 187.787102,11.6345967 187.525244,11.6345967 C187.23277,11.6345967 186.97026,11.5818342 186.739017,11.4769605 C186.507122,11.3714354 186.309751,11.2287811 186.146252,11.0489977 C185.982102,10.8692142 185.856384,10.6588154 185.769098,10.4191041 C185.681812,10.1787414 185.637517,9.92144256 185.637517,9.64720762 C185.637517,9.35538516 185.686371,9.0876641 185.782126,8.84339307 C185.87788,8.59912204 186.012066,8.38937464 186.182079,8.2134995 C186.352091,8.03762436 186.552719,7.90148397 186.781357,7.80507833 C187.011298,7.7086727 187.258825,7.65981849 187.525244,7.65981849 C187.787102,7.65981849 188.032025,7.7086727 188.25936,7.80507833 C188.486043,7.90148397 188.685368,8.03762436 188.856032,8.2134995 C189.026045,8.38937464 189.15958,8.59912204 189.255334,8.84339307 C189.351088,9.0876641 189.399943,9.35538516 189.399943,9.64720762 C189.399943,9.94293842 189.351088,10.2119622 189.255334,10.4542791 M189.730197,8.6629582 C189.601222,8.3672274 189.427301,8.11448831 189.20648,7.90474091 C188.985659,7.69434213 188.729663,7.53149478 188.439143,7.41554746 C188.149275,7.30025153 187.844425,7.24227787 187.525244,7.24227787 C187.202155,7.24227787 186.894047,7.30025153 186.601574,7.41554746 C186.3091,7.53149478 186.051801,7.69434213 185.83098,7.90474091 C185.61081,8.11448831 185.436238,8.3672274 185.306611,8.6629582 C185.178288,8.95934039 185.1138,9.28698927 185.1138,9.64720762 C185.1138,9.99048984 185.173728,10.3083679 185.294235,10.6021445 C185.414742,10.8959211 185.580195,11.149963 185.792548,11.3642701 C186.004249,11.5785773 186.256989,11.7466357 186.552719,11.8690969 C186.847147,11.9909068 187.171539,12.0521374 187.525244,12.0521374 C187.844425,12.0521374 188.149275,11.9941637 188.439143,11.8788678 C188.729663,11.7629205 188.985659,11.6000731 189.20648,11.3903257 C189.427301,11.1799269 189.601222,10.9271878 189.730197,10.6308056 C189.859823,10.3350748 189.92366,10.007426 189.92366,9.64720762 C189.92366,9.28698927 189.859823,8.95934039 189.730197,8.6629582" id="Fill-23" fill="#FFFFFF" mask="url(#mask-2)"></path>
                                <path d="M187.538467,9.51217459 L187.040154,9.51217459 L187.040154,8.73441562 L187.578202,8.73441562 C187.643341,8.73441562 187.711085,8.73767257 187.780784,8.74353507 C187.850482,8.75004897 187.914319,8.7663337 187.97099,8.79238928 C188.02766,8.81779347 188.07456,8.85427127 188.11169,8.90117131 C188.148819,8.94872274 188.167709,9.0125589 188.167709,9.09398258 C188.167709,9.19299377 188.14947,9.26855495 188.115598,9.32262027 C188.080423,9.3760342 188.034826,9.41772312 187.977503,9.44768704 C187.920833,9.47765095 187.853739,9.49654124 187.777527,9.50240375 C187.701314,9.50891764 187.621193,9.51217459 187.538467,9.51217459 M188.410026,9.6535261 C188.545515,9.5421385 188.612608,9.36626336 188.612608,9.12655205 C188.612608,8.85622544 188.529882,8.66146001 188.364429,8.54095296 C188.198324,8.42109731 187.951448,8.36116948 187.623799,8.36116948 L186.595255,8.36116948 L186.595255,11.023398 L187.040154,11.023398 L187.040154,9.88542073 L187.459649,9.88542073 L188.161195,11.023398 L188.665371,11.023398 L187.905199,9.85285126 C188.106479,9.83135541 188.274537,9.76491369 188.410026,9.6535261" id="Fill-24" fill="#FFFFFF" mask="url(#mask-2)"></path>
                            </g>
                        </g>
                    </g>
                </g>
            </g>
        </g>
    </g>
</svg>