<?xml version="1.0" encoding="UTF-8"?>
<svg width="152px" height="40px" viewBox="0 0 152 40" version="1.1" xmlns="http://www.w3.org/2000/svg" xmlns:xlink="http://www.w3.org/1999/xlink">
    <title>logo-drupal-solid</title>
    <defs>
        <polygon id="path-1" points="0 38.8292029 151.299998 38.8292029 151.299998 0 0 0"></polygon>
    </defs>
    <g id="Shared-Design" stroke="none" stroke-width="1" fill="none" fill-rule="evenodd">
        <g id="HG-Concepts---Shared-Page-XL" transform="translate(-1152.000000, -3372.000000)">
            <g id=".o-apps__full-xl" transform="translate(325.000000, 2975.000000)">
                <g id=".o-features--large-copy" transform="translate(98.000000, 397.500000)">
                    <g id=".a-text--h1">
                        <g id="Group-8">
                            <g id="logo-drupal-solid" transform="translate(729.000000, 0.000000)">
                                <path d="M70.9637157,7.36415917 L64.5715195,7.36415917 L64.5821515,19.1464529 C64.5821515,22.5897417 63.0836957,25.3753237 59.5881669,25.3753237 C56.0915531,25.3753237 54.5792107,22.5897417 54.5792107,19.1464529 L54.5792107,7.37570164 L48.203505,7.37570164 L48.2017691,19.1464529 C48.2017691,25.9505233 52.6415898,31.4650437 59.5495446,31.4650437 C66.4555467,31.4650437 70.9615459,25.9505233 70.9615459,19.1464529 L70.9637157,7.36415917 Z" id="Fill-1" fill="#FFFFFF"></path>
                                <mask id="mask-2" fill="white">
                                    <use xlink:href="#path-1"></use>
                                </mask>
                                <g id="Clip-4"></g>
                                <polygon id="Fill-3" fill="#FFFFFF" mask="url(#mask-2)" points="128.538051 30.7955747 134.563272 30.7955747 134.563272 0 128.538051 0"></polygon>
                                <polygon id="Fill-5" fill="#FFFFFF" mask="url(#mask-2)" points="139.249555 1.11422066 139.249555 0 143.935838 0 143.935838 1.11422066 142.221815 1.11422066 142.221815 6.02522114 140.964399 6.02522114 140.964399 1.11422066"></polygon>
                                <polygon id="Fill-6" fill="#FFFFFF" mask="url(#mask-2)" points="146.528556 0 147.982644 4.14282586 148.00026 4.14282586 149.374965 0 151.299998 0 151.299998 6.02522114 150.020284 6.02522114 150.020284 1.75508666 150.002446 1.75508666 148.479232 6.02522114 147.425181 6.02522114 145.90219 1.79701853 145.884798 1.79701853 145.884798 6.02522114 144.605307 6.02522114 144.605307 0"></polygon>
                                <path d="M42.8551093,6.88365802 C37.3470919,5.62746012 33.8727034,11.0347976 33.7284095,11.324938 C33.6575703,11.4671003 33.6547368,11.5500283 33.4108321,11.5437818 C33.2092129,11.5394738 33.1863264,11.324938 33.1863264,11.324938 L32.502783,7.18866081 L26.7787606,7.18866081 L26.7787606,30.7955747 L33.1950451,30.7955747 L33.1950451,18.0173366 C33.1950451,16.9730898 36.0403818,11.966607 41.5531945,13.2553299 C44.341424,13.9071226 45.5238931,15.0762999 45.5238931,15.0762999 L45.5238931,7.88482535 C44.4922569,7.35322446 43.7845192,7.09560911 42.8551093,6.88365802" id="Fill-7" fill="#FFFFFF" mask="url(#mask-2)"></path>
                                <path d="M85.3622087,12.917187 C88.8253027,12.917187 91.6318496,15.772874 91.6318496,19.2934115 C91.6318496,22.8165546 88.8253027,25.6724588 85.3622087,25.6724588 C81.899755,25.6724588 79.0940619,22.8165546 79.0940619,19.2934115 C79.0940619,15.772874 81.899755,12.917187 85.3622087,12.917187 L85.3622087,12.917187 Z M79.2718589,38.8292029 L79.2718589,30.2669187 C79.2727127,30.2669187 79.2735665,30.2677872 79.2739933,30.2684386 L79.2748471,27.0618703 C79.2748471,27.0618703 79.2850923,26.8052233 79.5121944,26.8021835 C79.7149642,26.8000122 79.7602139,26.9365866 79.8097324,27.0618703 C80.2859212,28.2678075 82.9059199,32.8618332 88.7200759,31.4207448 C93.9248554,29.9292824 97.7424763,25.0673189 97.7424763,19.2934115 C97.7424763,12.3363656 92.1970436,6.69469016 85.3570861,6.69469016 C78.5169151,6.69469016 72.9721227,12.3363656 72.9721227,19.2934115 L72.9721227,38.8292029 L79.2718589,38.8292029 Z" id="Fill-8" fill="#FFFFFF" mask="url(#mask-2)"></path>
                                <path d="M119.069194,19.1760295 C119.069194,22.6666227 116.262433,25.4957521 112.800833,25.4957521 C109.337953,25.4957521 106.530979,22.6666227 106.530979,19.1760295 C106.530979,15.6884477 109.337953,12.8591032 112.800833,12.8591032 C116.262433,12.8591032 119.069194,15.6884477 119.069194,19.1760295 M118.89097,30.7758472 L125.190706,30.7758472 L125.190706,19.1760295 C125.190706,12.2836835 119.64634,6.69469016 112.805743,6.69469016 C105.964931,6.69469016 100.420352,12.2836835 100.420352,19.1760295 C100.420352,24.89624 104.23776,29.7129876 109.442539,31.1907947 C115.257336,32.618266 117.876267,28.0669644 118.35331,26.8722423 C118.402828,26.7481237 118.447224,26.6128194 118.650848,26.6149705 C118.87795,26.6181972 118.887341,26.8722423 118.887341,26.8722423" id="Fill-9" fill="#FFFFFF" mask="url(#mask-2)"></path>
                                <path d="M8.89142407,5.33803431 L6.35404885,5.33803431 L6.35404885,25.4523821 L8.9598048,25.5194406 C14.303791,25.5194406 17.7455496,25.0317615 17.7455496,15.3976799 C17.7455496,6.15907196 14.7067871,5.33803431 8.89142407,5.33803431 M7.177833,30.7955747 L0,30.7955747 L0,0 L7.70172799,0 C17.0276591,0 24.1008846,1.71579674 24.1008846,15.3976799 C24.1008846,28.9478102 16.6083716,30.7955747 7.177833,30.7955747" id="Fill-10" fill="#FFFFFF" mask="url(#mask-2)"></path>
                            </g>
                        </g>
                    </g>
                </g>
            </g>
        </g>
    </g>
</svg>