<?xml version="1.0" encoding="UTF-8"?>
<svg width="117px" height="40px" viewBox="0 0 117 40" version="1.1" xmlns="http://www.w3.org/2000/svg" xmlns:xlink="http://www.w3.org/1999/xlink">
    <title>logo-phpbb-solid</title>
    <defs>
        <polygon id="path-1" points="0 0 116.792981 0 116.792981 38.5832346 0 38.5832346"></polygon>
    </defs>
    <g id="Shared-Design" stroke="none" stroke-width="1" fill="none" fill-rule="evenodd">
        <g id="HG-Concepts---Shared-Page-XL" transform="translate(-1380.000000, -3372.000000)">
            <g id=".o-apps__full-xl" transform="translate(325.000000, 2975.000000)">
                <g id=".o-features--large-copy" transform="translate(98.000000, 397.500000)">
                    <g id=".a-text--h1">
                        <g id="Group-8">
                            <g id="logo-phpbb-solid" transform="translate(957.000000, 0.000000)">
                                <path d="M91.7490371,35.5328412 C91.7369965,35.369483 91.7020789,35.2117302 91.6442843,35.0599833 C91.5864896,34.9082363 91.5074234,34.7765087 91.4070855,34.6648006 C91.3067476,34.552692 91.1855394,34.4614036 91.0426582,34.3917361 C90.9001783,34.322469 90.7404404,34.2876353 90.564247,34.2876353 C90.3820334,34.2876353 90.2166765,34.3192659 90.0677751,34.3829276 C89.9188736,34.4465892 89.7912438,34.5342742 89.6848856,34.6463827 C89.5789288,34.7584913 89.4938422,34.8906192 89.4300273,35.0419658 C89.3662124,35.1933124 89.3312948,35.3574713 89.3248732,35.5328412 L91.7490371,35.5328412 Z M89.3248732,36.2147015 C89.3248732,36.3964775 89.3505597,36.5722478 89.402334,36.7420122 C89.4541084,36.9113762 89.5315693,37.05992 89.6347166,37.1876437 C89.737864,37.3145666 89.8687046,37.4162651 90.0268372,37.4919384 C90.1849697,37.5676117 90.3728023,37.6056485 90.5915389,37.6056485 C90.8953621,37.6056485 91.1397853,37.5403853 91.3252097,37.4098589 C91.5106342,37.2797329 91.6486991,37.0843437 91.7402073,36.8240916 L92.7243215,36.8240916 C92.6693364,37.0783379 92.5754201,37.3057581 92.44177,37.5055516 C92.3081199,37.7057454 92.1467765,37.8739083 91.9585426,38.0100401 C91.7703087,38.146172 91.5591977,38.249472 91.3252097,38.3191395 C91.0912217,38.3888069 90.8467986,38.424041 90.5915389,38.424041 C90.2210914,38.424041 89.8931871,38.3631821 89.6074247,38.242265 C89.3220637,38.1209475 89.0808514,37.9511831 88.882985,37.7329718 C88.68552,37.5147605 88.5366186,37.2541081 88.436682,36.9510146 C88.3363441,36.647921 88.2861751,36.3147984 88.2861751,35.9512464 C88.2861751,35.6177234 88.3395549,35.3010167 88.4459131,35.0011263 C88.5518699,34.7012358 88.7039822,34.4373803 88.9010458,34.2099601 C89.0985109,33.9829402 89.3369137,33.8027658 89.6166558,33.6694366 C89.8959966,33.5361075 90.2118603,33.4692428 90.564247,33.4692428 C90.9350959,33.4692428 91.2678164,33.5465176 91.5620072,33.7010673 C91.8570006,33.8556169 92.1014238,34.0598147 92.295678,34.3144613 C92.4903335,34.5691079 92.631208,34.8613909 92.7195053,35.1917108 C92.8078027,35.5224311 92.8302784,35.8631611 92.7881364,36.2147015 L89.3248732,36.2147015 Z M85.4634691,33.5965661 L86.4383522,33.5965661 L86.4383522,34.5058466 L86.456413,34.5058466 C86.4869158,34.3781229 86.5463158,34.2540027 86.6342118,34.1326853 C86.7225092,34.0113678 86.828466,33.9012611 86.9532864,33.8011642 C87.0777054,33.7010673 87.2157703,33.6209897 87.3678826,33.5601308 C87.5195935,33.4996722 87.6749166,33.4692428 87.8326478,33.4692428 C87.9542573,33.4692428 88.0377385,33.4724459 88.0830912,33.4780513 C88.1284439,33.4844575 88.1758034,33.4900629 88.224367,33.4964691 L88.224367,34.4962373 C88.151321,34.4842257 88.0774723,34.4734152 88.0012155,34.4646067 C87.92536,34.4557982 87.8507086,34.4509935 87.7776626,34.4509935 C87.6018706,34.4509935 87.4361124,34.4858272 87.2811906,34.5558951 C87.1262689,34.6251622 86.9914148,34.7280618 86.8754241,34.864594 C86.7602362,35.0011263 86.6691294,35.1692891 86.602505,35.369483 C86.5354793,35.5692765 86.5021671,35.7994994 86.5021671,36.0601518 L86.5021671,38.2963174 L85.4634691,38.2963174 L85.4634691,33.5965661 Z M83.2961702,35.9416371 C83.138439,36.0449371 82.9441849,36.1073976 82.7130063,36.1282177 C82.4822291,36.1494383 82.2514519,36.1814693 82.0206747,36.2239104 C81.9111057,36.2419279 81.8051489,36.2675527 81.7020015,36.3011853 C81.5984528,36.3344174 81.507346,36.3796612 81.4282797,36.4373171 C81.3492135,36.4949729 81.2874053,36.5706462 81.2412499,36.6647373 C81.1958971,36.7588284 81.1730201,36.8725386 81.1730201,37.0058677 C81.1730201,37.120779 81.2063323,37.2176728 81.273358,37.2965492 C81.3399824,37.3754256 81.4210554,37.4374857 81.5149717,37.4827295 C81.608888,37.5279733 81.7124367,37.5600043 81.8244138,37.5780218 C81.9371936,37.5964396 82.0391369,37.6056485 82.1298424,37.6056485 C82.2454317,37.6056485 82.370252,37.5904338 82.5039021,37.5600043 C82.6375522,37.5295748 82.7631753,37.4783252 82.881574,37.405855 C83.0003741,37.3329845 83.0991066,37.2404949 83.1781729,37.1279859 C83.2572391,37.0162778 83.2961702,36.878144 83.2961702,36.7147858 L83.2961702,35.9416371 Z M84.3352696,37.250905 C84.3352696,37.3782283 84.351725,37.4691163 84.3854386,37.5239694 C84.4187508,37.5780218 84.4841711,37.6056485 84.5816995,37.6056485 L84.6908672,37.6056485 C84.7334105,37.6056485 84.781974,37.5996427 84.8365578,37.5876311 L84.8365578,38.3055263 C84.8004362,38.3175379 84.7526753,38.3311511 84.695282,38.3463658 C84.6374874,38.3615806 84.5784887,38.3755941 84.5174833,38.3876058 C84.4568792,38.3996174 84.3962751,38.4088263 84.3352696,38.4144317 C84.2746655,38.4208379 84.2228912,38.424041 84.1807492,38.424041 C83.9676315,38.424041 83.7918395,38.3811996 83.6517678,38.2963174 C83.5124988,38.2114352 83.4209906,38.0628913 83.3788487,37.8510862 C83.1721526,38.0508797 82.918097,38.1962204 82.6174846,38.2875088 C82.3168722,38.3779965 82.026695,38.424041 81.7473543,38.424041 C81.5346379,38.424041 81.3311526,38.3948127 81.1368984,38.3375573 C80.9422429,38.2795011 80.7704644,38.1946189 80.6215629,38.0829107 C80.4730628,37.9708021 80.3542627,37.8282641 80.2667681,37.655697 C80.1784707,37.4827295 80.134322,37.2813344 80.134322,37.0511115 C80.134322,36.7600296 80.1873005,36.5238008 80.2936586,36.3420248 C80.4004182,36.1598484 80.5396872,36.0177107 80.7130711,35.9148111 C80.886455,35.811511 81.0807092,35.7374393 81.296235,35.6917951 C81.5117609,35.6465513 81.7288921,35.6117176 81.9476287,35.5876943 C82.136264,35.551259 82.3152668,35.5252338 82.4854399,35.5100191 C82.655613,35.4948043 82.8061199,35.4691795 82.9365592,35.4327442 C83.0669985,35.396309 83.1705472,35.3406551 83.2460013,35.2645814 C83.3222581,35.1889081 83.3603865,35.075198 83.3603865,34.9238514 C83.3603865,34.7905223 83.3286797,34.6812165 83.2644635,34.5963343 C83.2006486,34.5114521 83.1219836,34.4465892 83.027666,34.400945 C82.9333484,34.3557012 82.8285956,34.3252718 82.7130063,34.310057 C82.5978184,34.2948423 82.4886507,34.2876353 82.385102,34.2876353 C82.0933194,34.2876353 81.8537125,34.3480939 81.6654785,34.4694113 C81.4768433,34.5903284 81.3708864,34.7781103 81.346404,35.0327569 L80.3073046,35.0327569 C80.3257668,34.7296634 80.3988128,34.4782199 80.5260412,34.278026 C80.6536711,34.0782325 80.8162185,33.917677 81.0136835,33.7963595 C81.2111485,33.6750421 81.4347014,33.5901599 81.6835394,33.5417129 C81.9327787,33.493266 82.1880384,33.4692428 82.4489169,33.4692428 C82.6796941,33.4692428 82.9076619,33.493266 83.1324188,33.5417129 C83.3571757,33.5901599 83.5594569,33.6694366 83.7384597,33.7783421 C83.9174626,33.887648 84.0619492,34.0281841 84.1711168,34.2011516 C84.2806858,34.3737187 84.3352696,34.5843226 84.3352696,34.8329634 L84.3352696,37.250905 Z M72.8642385,33.5965661 L73.9667515,33.5965661 L74.8874521,37.1055642 L74.9055129,37.1055642 L75.7892892,33.5965661 L76.8376197,33.5965661 L77.684873,37.1055642 L77.7033352,37.1055642 L78.6601575,33.5965661 L79.7169163,33.5965661 L78.2411464,38.2963174 L77.1747551,38.2963174 L76.2998085,34.805737 L76.2817477,34.805737 L75.4160322,38.2963174 L74.322349,38.2963174 L72.8642385,33.5965661 Z M69.7770417,33.5965661 L70.5608815,33.5965661 L70.5608815,32.1876016 L71.5999808,32.1876016 L71.5999808,33.5965661 L72.538341,33.5965661 L72.538341,34.3693144 L71.5999808,34.3693144 L71.5999808,36.878144 C71.5999808,36.9874498 71.6043957,37.0811406 71.6132255,37.160017 C71.6228579,37.2388933 71.6437282,37.3057581 71.6770404,37.3598104 C71.7103525,37.4146636 71.7605215,37.4555031 71.8275472,37.4827295 C71.8941716,37.5099558 71.9856798,37.5239694 72.1008677,37.5239694 C72.1739137,37.5239694 72.2465583,37.5223679 72.3196043,37.5191648 C72.392249,37.5159617 72.465295,37.5055516 72.538341,37.4875341 L72.538341,38.2875088 C72.4231531,38.2995205 72.3103732,38.3115321 72.2012056,38.3239441 C72.0916366,38.3359557 71.9792581,38.3419616 71.8640702,38.3419616 C71.5903484,38.3419616 71.3704077,38.3159364 71.2034454,38.2646867 C71.0364832,38.2130367 70.9056425,38.1373634 70.8113249,38.0372665 C70.7174086,37.9375699 70.6531923,37.8114478 70.6198802,37.6601012 C70.586568,37.5087547 70.5669017,37.3357872 70.5608815,37.1419995 L70.5608815,34.3693144 L69.7770417,34.3693144 L69.7770417,33.5965661 Z M66.9085816,33.5965661 L67.6831902,33.5965661 L67.6831902,33.2057876 C67.6831902,32.9082995 67.7197132,32.6676665 67.7927592,32.4830878 C67.8654039,32.2981086 67.962531,32.1555706 68.0841405,32.0554737 C68.2057501,31.9553767 68.3442164,31.8889124 68.4987368,31.8552798 C68.6536585,31.8220476 68.8162059,31.8052313 68.986379,31.8052313 C69.3203036,31.8052313 69.5635226,31.8268523 69.7156349,31.8692934 L69.7156349,32.6780766 C69.6490105,32.6600591 69.5771686,32.646446 69.5013131,32.6376374 C69.4254577,32.6284285 69.3355549,32.6236239 69.2324075,32.6236239 C69.0927372,32.6236239 68.972733,32.656856 68.8723951,32.7237208 C68.7724586,32.7901852 68.7222896,32.9207116 68.7222896,33.1144992 L68.7222896,33.5965661 L69.6060659,33.5965661 L69.6060659,34.3693144 L68.7222896,34.3693144 L68.7222896,38.2963174 L67.6831902,38.2963174 L67.6831902,34.3693144 L66.9085816,34.3693144 L66.9085816,33.5965661 Z M64.1223985,37.6056485 C64.3531757,37.6056485 64.5534502,37.5572016 64.7236233,37.4599074 C64.8937964,37.3630135 65.0338681,37.2360906 65.1430357,37.0783379 C65.2522034,36.9209855 65.332875,36.7432133 65.3846494,36.5462225 C65.4360224,36.3496322 65.4617089,36.1478367 65.4617089,35.9416371 C65.4617089,35.7418436 65.4360224,35.5416497 65.3846494,35.3418562 C65.332875,35.1416624 65.2522034,34.964691 65.1430357,34.8101413 C65.0338681,34.6555916 64.8937964,34.5298699 64.7236233,34.4329761 C64.5534502,34.3360822 64.3531757,34.2876353 64.1223985,34.2876353 C63.8916213,34.2876353 63.6909455,34.3360822 63.5207724,34.4329761 C63.3505993,34.5298699 63.2113303,34.6555916 63.1017613,34.8101413 C62.9925937,34.964691 62.9115206,35.1416624 62.8601476,35.3418562 C62.8087746,35.5416497 62.7826867,35.7418436 62.7826867,35.9416371 C62.7826867,36.1478367 62.8087746,36.3496322 62.8601476,36.5462225 C62.9115206,36.7432133 62.9925937,36.9209855 63.1017613,37.0783379 C63.2113303,37.2360906 63.3505993,37.3630135 63.5207724,37.4599074 C63.6909455,37.5572016 63.8916213,37.6056485 64.1223985,37.6056485 L64.1223985,37.6056485 Z M64.1223985,38.424041 C63.7459307,38.424041 63.4099994,38.3615806 63.1150059,38.2374604 C62.8208152,38.1129398 62.5715758,37.9419742 62.3680905,37.7237629 C62.1646052,37.5055516 62.0092821,37.2448992 61.9033253,36.942206 C61.7969671,36.6391125 61.7435874,36.3055895 61.7435874,35.9416371 C61.7435874,35.5844912 61.7969671,35.2541713 61.9033253,34.9510778 C62.0092821,34.6479843 62.1646052,34.3873319 62.3680905,34.1691205 C62.5715758,33.9509092 62.8208152,33.7799437 63.1150059,33.6558235 C63.4099994,33.5313029 63.7459307,33.4692428 64.1223985,33.4692428 C64.4988663,33.4692428 64.8343963,33.5313029 65.1293898,33.6558235 C65.4239819,33.7799437 65.6728199,33.9509092 65.8763052,34.1691205 C66.0801918,34.3873319 66.2351135,34.6479843 66.3410704,34.9510778 C66.4474285,35.2541713 66.5008083,35.5844912 66.5008083,35.9416371 C66.5008083,36.3055895 66.4474285,36.6391125 66.3410704,36.942206 C66.2351135,37.2448992 66.0801918,37.5055516 65.8763052,37.7237629 C65.6728199,37.9419742 65.4239819,38.1129398 65.1293898,38.2374604 C64.8343963,38.3615806 64.4988663,38.424041 64.1223985,38.424041 L64.1223985,38.424041 Z M58.0098131,36.7876564 C58.0399145,37.0907499 58.1555037,37.302555 58.3557782,37.4238725 C58.556454,37.5447896 58.7964623,37.6056485 59.075803,37.6056485 C59.1729301,37.6056485 59.2837032,37.5980411 59.4085235,37.5828264 C59.5329425,37.5676117 59.6497359,37.5391841 59.7593049,37.4963427 C59.8684725,37.4543019 59.9583753,37.3922418 60.0282105,37.309762 C60.0980457,37.2280829 60.1301538,37.120779 60.1237322,36.9874498 C60.1177119,36.8541207 60.0691483,36.7448149 59.9780415,36.6599327 C59.8869347,36.5754509 59.76974,36.5073849 59.6272602,36.4557349 C59.484379,36.4040849 59.3218316,36.3600422 59.1396179,36.3240074 C58.9574043,36.2875721 58.7719798,36.2479337 58.5837459,36.205893 C58.3890904,36.1630515 58.2024619,36.1114015 58.023459,36.0509429 C57.8440549,35.9904844 57.6831129,35.9084049 57.5402317,35.8059056 C57.3977518,35.7026056 57.2833666,35.570878 57.1986814,35.4099221 C57.1135949,35.2493667 57.0710516,35.0511747 57.0710516,34.8145456 C57.0710516,34.559899 57.1332611,34.3464923 57.2576801,34.1735248 C57.3825005,34.0009577 57.5402317,33.8616228 57.7316764,33.7559204 C57.9231211,33.6494172 58.1358375,33.5749451 58.3698255,33.5329044 C58.6034122,33.4900629 58.826965,33.4692428 59.03928,33.4692428 C59.2820978,33.4692428 59.5148817,33.4948676 59.7364278,33.5465176 C59.9583753,33.5981676 60.1586497,33.6814483 60.3376526,33.7963595 C60.5174581,33.9116712 60.6659582,34.0614162 60.7847583,34.2463954 C60.903157,34.4313745 60.9774071,34.6539901 61.0075085,34.9146425 L59.9230563,34.9146425 C59.8744928,34.6660017 59.7609103,34.4994404 59.5819074,34.4145582 C59.4021019,34.329676 59.1974126,34.2876353 58.966234,34.2876353 C58.8935894,34.2876353 58.8068974,34.2932407 58.7069609,34.3056528 C58.606623,34.3176644 58.5123053,34.3400861 58.4244093,34.3737187 C58.336112,34.4069509 58.2614606,34.4557982 58.2008565,34.5194598 C58.1402524,34.5827211 58.1097496,34.6660017 58.1097496,34.7693018 C58.1097496,34.8962247 58.1538983,34.9995247 58.2421957,35.0780007 C58.3300917,35.1572775 58.4452796,35.2225407 58.5881608,35.2737903 C58.731042,35.3250399 58.8935894,35.369483 59.075803,35.4059183 C59.2580167,35.4419532 59.4466519,35.4811912 59.6409061,35.5240326 C59.8291401,35.5660734 60.0145645,35.6177234 60.1967782,35.6781819 C60.3789918,35.7390409 60.5415392,35.82072 60.6844204,35.92402 C60.8269002,36.0265193 60.9424895,36.1574461 61.0303855,36.3147984 C61.1186829,36.4725512 61.1628315,36.6663389 61.1628315,36.8965618 C61.1628315,37.1756321 61.0990166,37.4114605 60.9709855,37.6056485 C60.843757,37.7994362 60.6779988,37.9571889 60.4745135,38.078106 C60.2710282,38.1994235 60.0450672,38.2875088 59.7958279,38.3419616 C59.5465885,38.3964143 59.3005599,38.424041 59.0577422,38.424041 C58.7599393,38.424041 58.4850134,38.3904085 58.2329646,38.3239441 C57.9809158,38.2570794 57.7621791,38.1557813 57.5767547,38.019249 C57.3917316,37.8827168 57.2456396,37.7129524 57.1392814,37.5099558 C57.0329232,37.3073596 56.976734,37.0663262 56.9707137,36.7876564 L58.0098131,36.7876564 Z M37.3903728,33.7563208 L38.374487,33.7563208 L38.374487,34.4105543 L38.4021802,34.4105543 C38.4808452,34.2952427 38.5659317,34.1895403 38.6570385,34.0922461 C38.7481453,33.9953523 38.8500887,33.9136732 38.9624671,33.8468084 C39.0748456,33.780344 39.2040808,33.7270925 39.3497714,33.6878545 C39.4954621,33.6482161 39.6624244,33.6285971 39.8506583,33.6285971 C40.1364207,33.6285971 40.4021154,33.6922587 40.648144,33.819582 C40.8945739,33.9469053 41.0691619,34.1438961 41.1723092,34.4105543 C41.3485026,34.1683198 41.5519879,33.9769344 41.7827651,33.8379999 C42.0139436,33.6982646 42.3021141,33.6285971 42.6484805,33.6285971 C43.1465579,33.6285971 43.5338623,33.7499146 43.8103935,33.9921492 C44.0869248,34.2347841 44.2249898,34.6407773 44.2249898,35.210529 L44.2249898,38.4560721 L43.1862917,38.4560721 L43.1862917,35.7102129 C43.1862917,35.5228315 43.1802715,35.3514655 43.1682309,35.1969159 C43.155789,35.0423662 43.1208714,34.9090371 43.0630768,34.7969285 C43.0052822,34.6848199 42.9189916,34.5983362 42.8034023,34.5378776 C42.6882144,34.4770187 42.5300818,34.4469896 42.3298073,34.4469896 C41.9774206,34.4469896 41.722161,34.5562955 41.5640284,34.7741064 C41.4062972,34.9923177 41.327231,35.3014171 41.327231,35.7014044 L41.327231,38.4560721 L40.2881316,38.4560721 L40.2881316,35.4379493 C40.2881316,35.1104321 40.2291329,34.8633929 40.1107342,34.6968316 C39.9919341,34.5302703 39.7748028,34.4469896 39.4589391,34.4469896 C39.325289,34.4469896 39.1964551,34.4738156 39.0716348,34.5286687 C38.9472158,34.5831215 38.8376468,34.6619978 38.7437305,34.7648975 C38.6494128,34.8681975 38.5735574,34.9951204 38.5157627,35.1468674 C38.4583695,35.298214 38.4290708,35.4711815 38.4290708,35.6649691 L38.4290708,38.4560721 L37.3903728,38.4560721 L37.3903728,33.7563208 Z M36.4576316,38.4560721 L35.4369943,38.4560721 L35.4369943,37.8014381 L35.4189335,37.8014381 C35.2913037,38.0380673 35.1014644,38.2270503 34.8490142,38.3695883 C34.5973667,38.511726 34.3405017,38.5833954 34.0792218,38.5833954 C33.4595348,38.5833954 33.0116264,38.4300469 32.7350951,38.1241506 C32.4585638,37.8182544 32.3204989,37.3562069 32.3204989,36.7380083 L32.3204989,33.7563208 L33.3595983,33.7563208 L33.3595983,36.6379113 C33.3595983,37.0499103 33.4382632,37.3409922 33.5963957,37.5103562 C33.7541269,37.6801206 33.9760744,37.7650028 34.2614354,37.7650028 C34.480172,37.7650028 34.6623857,37.7317706 34.8080763,37.6649059 C34.9541683,37.5984415 35.0725671,37.5091551 35.1636739,37.3966461 C35.2547807,37.2849379 35.320201,37.1500073 35.3595335,36.9926549 C35.3992673,36.8349021 35.4189335,36.6651377 35.4189335,36.4833617 L35.4189335,33.7563208 L36.4576316,33.7563208 L36.4576316,38.4560721 Z M29.2734373,33.7563208 L30.2487217,33.7563208 L30.2487217,34.6652009 L30.2671839,34.6652009 C30.2972853,34.5378776 30.3566853,34.4133571 30.4445813,34.2920396 C30.5328787,34.1711225 30.6388355,34.0602151 30.7636559,33.9605185 C30.8880749,33.8604216 31.0265412,33.780344 31.1782521,33.7198855 C31.329963,33.6590266 31.4848848,33.6285971 31.6430173,33.6285971 C31.7642255,33.6285971 31.8477067,33.6318002 31.8934607,33.637806 C31.9392148,33.6438118 31.986173,33.6498176 32.0347365,33.6562238 L32.0347365,34.655992 C31.9620919,34.64358 31.8874405,34.6331699 31.811585,34.623961 C31.7357296,34.6151525 31.6610781,34.6103478 31.5880321,34.6103478 C31.4122401,34.6103478 31.2464819,34.6451816 31.0915602,34.7152494 C30.9366384,34.7849169 30.8017843,34.8878165 30.686195,35.0239484 C30.5706058,35.1604806 30.4794989,35.3286434 30.4128746,35.5284369 C30.3458488,35.7286308 30.3125366,35.9588537 30.3125366,36.2195062 L30.3125366,38.4560721 L29.2734373,38.4560721 L29.2734373,33.7563208 Z M26.190254,38.5833954 C25.8133848,38.5833954 25.4778548,38.5213353 25.1832627,38.3968147 C24.8886706,38.2726945 24.6398326,38.1013285 24.435946,37.8831172 C24.2324607,37.6649059 24.077539,37.4046539 23.9711808,37.1015603 C23.8648226,36.7984668 23.8118442,36.4649438 23.8118442,36.1013918 C23.8118442,35.7438455 23.8648226,35.4135256 23.9711808,35.1104321 C24.077539,34.8073386 24.2324607,34.5466862 24.435946,34.3284749 C24.6398326,34.1102635 24.8886706,33.939298 25.1832627,33.8151778 C25.4778548,33.6906572 25.8133848,33.6285971 26.190254,33.6285971 C26.5671232,33.6285971 26.9026531,33.6906572 27.1972452,33.8151778 C27.4918373,33.939298 27.7410767,34.1102635 27.944562,34.3284749 C28.1480473,34.5466862 28.302969,34.8073386 28.4093272,35.1104321 C28.5156854,35.4135256 28.5686638,35.7438455 28.5686638,36.1013918 C28.5686638,36.4649438 28.5156854,36.7984668 28.4093272,37.1015603 C28.302969,37.4046539 28.1480473,37.6649059 27.944562,37.8831172 C27.7410767,38.1013285 27.4918373,38.2726945 27.1972452,38.3968147 C26.9026531,38.5213353 26.5671232,38.5833954 26.190254,38.5833954 L26.190254,38.5833954 Z M26.190254,37.7650028 C26.4210312,37.7650028 26.621707,37.7165559 26.7918801,37.6196621 C26.9620532,37.5227682 27.1017236,37.3950446 27.2108912,37.2376922 C27.3204602,37.0799394 27.4007305,36.902968 27.4525049,36.7059773 C27.5038779,36.5089865 27.5299658,36.3075915 27.5299658,36.1013918 C27.5299658,35.9015983 27.5038779,35.7014044 27.4525049,35.5016109 C27.4007305,35.3014171 27.3204602,35.1240453 27.2108912,34.969896 C27.1017236,34.814946 26.9620532,34.6896246 26.7918801,34.5923304 C26.621707,34.4954365 26.4210312,34.4469896 26.190254,34.4469896 C25.9594768,34.4469896 25.758801,34.4954365 25.5886279,34.5923304 C25.4184548,34.6896246 25.2787844,34.814946 25.1696168,34.969896 C25.0600478,35.1240453 24.9797775,35.3014171 24.9280031,35.5016109 C24.8766301,35.7014044 24.8505422,35.9015983 24.8505422,36.1013918 C24.8505422,36.3075915 24.8766301,36.5089865 24.9280031,36.7059773 C24.9797775,36.902968 25.0600478,37.0799394 25.1696168,37.2376922 C25.2787844,37.3950446 25.4184548,37.5227682 25.5886279,37.6196621 C25.758801,37.7165559 25.9594768,37.7650028 26.190254,37.7650028 L26.190254,37.7650028 Z M20.8558894,33.7563208 L21.630498,33.7563208 L21.630498,33.365142 C21.630498,33.0680543 21.667021,32.8270208 21.740067,32.6420417 C21.813113,32.4574629 21.9102401,32.3149249 22.0314483,32.2152284 C22.1530579,32.1151314 22.2911228,32.0482667 22.4464459,32.0150345 C22.6009663,31.9818023 22.7635137,31.964986 22.9336868,31.964986 C23.2680127,31.964986 23.5108305,31.986607 23.6625414,32.0286477 L23.6625414,32.8378313 C23.595917,32.8198139 23.5244764,32.8058003 23.448621,32.7969918 C23.3727655,32.7877828 23.2832641,32.7833786 23.1797154,32.7833786 C23.040045,32.7833786 22.9200409,32.8166107 22.8197029,32.8834755 C22.7197664,32.9499399 22.6695974,33.0800659 22.6695974,33.2738535 L22.6695974,33.7563208 L23.5533737,33.7563208 L23.5533737,34.5286687 L22.6695974,34.5286687 L22.6695974,38.4560721 L21.630498,38.4560721 L21.630498,34.5286687 L20.8558894,34.5286687 L20.8558894,33.7563208 Z" id="Fill-1" fill="#FFFFFF"></path>
                                <mask id="mask-2" fill="white">
                                    <use xlink:href="#path-1"></use>
                                </mask>
                                <g id="Clip-4"></g>
                                <path d="M110.789982,22.1961432 C110.789982,20.578052 110.378999,19.4651622 109.556231,18.8582775 C108.733864,18.2513929 107.456365,17.9479506 105.724939,17.9479506 L101.006262,17.9479506 L101.006262,24.0606054 C101.006262,24.5806774 101.251487,25.0211711 101.741937,25.3828905 C102.232789,25.743806 102.853277,25.9242637 103.603802,25.9242637 L106.027959,25.9242637 C107.644197,25.9242637 108.841827,25.5850514 109.621249,24.9058229 C110.400271,24.2265943 110.789982,23.3235017 110.789982,22.1961432 L110.789982,22.1961432 Z M110.313579,9.75420388 C110.313579,9.11838167 110.17712,8.5766065 109.902596,8.12847644 C109.628072,7.68074829 109.274884,7.32626334 108.841827,7.06622733 C108.40877,6.80619133 107.918721,6.61849918 107.370075,6.502749 C106.821429,6.38740072 106.273184,6.32952563 105.724939,6.32952563 L103.51711,6.32952563 C103.141848,6.32952563 102.723239,6.36569756 102.261686,6.43804143 C101.800133,6.50998338 101.366675,6.57509286 100.962916,6.63296796 L100.962916,13.3525074 L105.508611,13.3525074 C106.835877,13.3525074 107.96889,13.0707682 108.907247,12.5072899 C109.845203,11.9434097 110.313579,11.0258483 110.313579,9.75420388 L110.313579,9.75420388 Z M116.764485,22.0229198 C116.764485,23.5260646 116.489961,24.8551822 115.941716,26.0110764 C115.393472,27.1673725 114.650171,28.142809 113.712215,28.9373858 C112.774259,29.7323645 111.691816,30.3320147 110.465289,30.7367385 C109.238762,31.1414622 107.947217,31.3436231 106.590652,31.3436231 L103.387474,31.3436231 C97.8745245,31.3436231 95.1184509,28.9880265 95.1184509,24.277235 L95.1184509,2.7312221 C95.4648164,2.61547191 95.9552666,2.47842048 96.590203,2.31926397 C97.2251395,2.16050938 97.910646,2.00858726 98.6467227,1.86430144 C99.3827995,1.7196137 100.132923,1.60426543 100.898299,1.51745279 C101.662871,1.43064015 102.348378,1.38723383 102.954417,1.38723383 L106.547708,1.38723383 C107.961665,1.38723383 109.260435,1.56769158 110.444018,1.929009 C111.627199,2.29032643 112.651847,2.81080035 113.51756,3.49002888 C114.383272,4.16885549 115.05433,4.99277174 115.530733,5.96097382 C116.006735,6.9291759 116.244736,8.02036255 116.244736,9.23413186 C116.244736,10.8815625 115.826529,12.2323832 114.989312,13.2873979 C114.152496,14.3424126 112.997811,15.0867506 111.526059,15.52001 C112.276584,15.7225728 112.969315,16.0549527 113.604251,16.5171496 C114.239188,16.9797485 114.794657,17.5070549 115.270658,18.0994708 C115.747061,18.6918867 116.1151,19.3349432 116.374773,20.0286405 C116.634849,20.7223378 116.764485,21.3870976 116.764485,22.0229198 L116.764485,22.0229198 Z M87.3784075,22.1961432 C87.3784075,20.578052 86.9674247,19.4651622 86.1446563,18.8582775 C85.3222892,18.2513929 84.0447907,17.9479506 82.3133649,17.9479506 L77.5946877,17.9479506 L77.5946877,24.0606054 C77.5946877,24.5806774 77.8395114,25.0211711 78.330363,25.3828905 C78.8212146,25.743806 79.4417024,25.9242637 80.1922278,25.9242637 L82.6163845,25.9242637 C84.2326227,25.9242637 85.4302525,25.5850514 86.209675,24.9058229 C86.9886963,24.2265943 87.3784075,23.3235017 87.3784075,22.1961432 L87.3784075,22.1961432 Z M86.9020046,9.75420388 C86.9020046,9.11838167 86.7651441,8.5766065 86.4910217,8.12847644 C86.216498,7.68074829 85.8633096,7.32626334 85.4302525,7.06622733 C84.9971953,6.80619133 84.5067451,6.61849918 83.958099,6.502749 C83.4098543,6.38740072 82.8616096,6.32952563 82.3133649,6.32952563 L80.1055361,6.32952563 C79.7302734,6.32952563 79.3116649,6.36569756 78.8501119,6.43804143 C78.3885588,6.50998338 77.9551004,6.57509286 77.5513418,6.63296796 L77.5513418,13.3525074 L82.097037,13.3525074 C83.4243029,13.3525074 84.5573152,13.0707682 85.4952712,12.5072899 C86.4332272,11.9434097 86.9020046,11.0258483 86.9020046,9.75420388 L86.9020046,9.75420388 Z M93.3529103,22.0229198 C93.3529103,23.5260646 93.0783866,24.8551822 92.5301419,26.0110764 C91.9818972,27.1673725 91.2385962,28.142809 90.3006402,28.9373858 C89.3626842,29.7323645 88.280242,30.3320147 87.053715,30.7367385 C85.8271881,31.1414622 84.5356423,31.3436231 83.1790778,31.3436231 L79.9758999,31.3436231 C74.4629501,31.3436231 71.7068766,28.9880265 71.7068766,24.277235 L71.7068766,2.7312221 C72.0528407,2.61547191 72.5436923,2.47842048 73.1786287,2.31926397 C73.8135651,2.16050938 74.4990716,2.00858726 75.2351484,1.86430144 C75.9712251,1.7196137 76.7213491,1.60426543 77.486323,1.51745279 C78.251297,1.43064015 78.9368036,1.38723383 79.5428427,1.38723383 L83.1361333,1.38723383 C84.5500909,1.38723383 85.8484596,1.56769158 87.0320421,1.929009 C88.2156246,2.29032643 89.2402723,2.81080035 90.1059852,3.49002888 C90.9716981,4.16885549 91.6427561,4.99277174 92.1187577,5.96097382 C92.5951607,6.9291759 92.8331615,8.02036255 92.8331615,9.23413186 C92.8331615,10.8815625 92.4149543,12.2323832 91.5777373,13.2873979 C90.7409216,14.3424126 89.5862364,15.0867506 88.1144843,15.52001 C88.8646083,15.7225728 89.5577405,16.0549527 90.1926769,16.5171496 C90.8276133,16.9797485 91.3830823,17.5070549 91.859084,18.0994708 C92.3354869,18.6918867 92.7035253,19.3349432 92.963199,20.0286405 C93.2224714,20.7223378 93.3529103,21.3870976 93.3529103,22.0229198 L93.3529103,22.0229198 Z M64.0097777,20.3320829 C64.0097777,17.5576956 63.5558503,15.5489476 62.6463902,14.3062407 C61.7373314,13.0635339 60.3450467,12.4421804 58.4687334,12.4421804 C56.8524951,12.4421804 55.6187438,13.0707682 54.7674795,14.3279439 C53.9158139,15.5851195 53.4899811,17.2253157 53.4899811,19.2485325 C53.4899811,21.5892585 54.0169542,23.3954437 55.0700978,24.6670881 C56.1236427,25.9391344 57.5163288,26.5749566 59.2481559,26.5749566 C60.6625149,26.5749566 61.8095745,26.0042439 62.689736,24.8624165 C63.5702989,23.7209911 64.0097777,22.2106119 64.0097777,20.3320829 L64.0097777,20.3320829 Z M69.9842804,18.8148712 C69.9842804,20.6934003 69.7535039,22.4204091 69.2919509,23.9954959 C68.8299966,25.5705826 68.1589386,26.936274 67.2787771,28.0921683 C66.3986155,29.2484644 65.3017248,30.1439207 63.9885061,30.7797429 C62.6752874,31.4155651 61.1670124,31.7334762 59.4644838,31.7334762 C58.1657138,31.7334762 57.0042056,31.4087326 55.9795579,30.7584416 C54.9549102,30.1081507 54.154216,29.277 53.5766728,28.2657935 L53.5766728,38.5832346 L51.7585552,38.5832346 C51.2392077,38.5832346 50.7339075,38.4895895 50.2434573,38.3014954 C49.7526057,38.1134014 49.3199499,37.846131 48.9446872,37.4996843 C48.5694246,37.1528356 48.266405,36.7336431 48.0356285,36.2421067 C47.8044506,35.7513741 47.689263,35.1874939 47.689263,34.5516717 L47.689263,20.4188955 C47.689263,18.4824913 47.9128152,16.7048418 48.360321,15.0867506 C48.8074254,13.4682576 49.5073806,12.080863 50.4597852,10.9249688 C51.4121898,9.76867265 52.6242681,8.87281444 54.0964216,8.23699224 C55.5681737,7.60117003 57.3284967,7.28325893 59.3777921,7.28325893 C60.9362359,7.28325893 62.3650435,7.60840442 63.6638136,8.2586954 C64.9621823,8.90898637 66.0811473,9.76867265 67.018702,10.8381561 C67.956658,11.9072377 68.6855104,13.1358777 69.2052592,14.5228704 C69.7246067,15.910265 69.9842804,17.340664 69.9842804,18.8148712 L69.9842804,18.8148712 Z M42.936471,31.2138061 C41.7239913,31.2138061 40.7643624,30.8810243 40.0571829,30.2162646 C39.3500034,29.5519067 38.996815,28.5837046 38.996815,27.3120602 L38.996815,17.7743253 C38.996815,16.820592 38.8740018,16.004312 38.6287766,15.3250835 C38.3835515,14.645855 38.0516347,14.0968454 37.6330262,13.6776529 C37.2144177,13.2584604 36.7239674,12.9477837 36.1612741,12.7456228 C35.5981794,12.5430599 34.9993645,12.4421804 34.3644281,12.4421804 C33.9028751,12.4421804 33.4264721,12.5358255 32.9360219,12.7239196 C32.4451703,12.9116117 31.9908416,13.2222884 31.572233,13.6559497 C31.1536245,14.089611 30.8144834,14.6530894 30.5548097,15.3467867 C30.2951359,16.040484 30.1650984,16.9074046 30.1650984,17.9479506 L30.1650984,31.2138061 L28.2602891,31.2138061 C26.8748274,31.2138061 25.8646283,30.8665555 25.2296919,30.1732601 C24.5947555,29.4795629 24.2772873,28.5258295 24.2772873,27.3120602 L24.2772873,-0.000160764147 L26.0958062,-0.000160764147 C27.4812679,-0.000160764147 28.5131399,0.346687884 29.1910208,1.04038518 C29.8693031,1.73408248 30.2084442,2.62994069 30.2084442,3.72836172 L30.2084442,10.4044949 C30.4107249,10.0576462 30.6920715,9.70356317 31.0524842,9.34264766 C31.4132983,8.98133024 31.8102339,8.64854845 32.2428896,8.34550804 C32.6763481,8.0416638 33.1523498,7.78886218 33.6716972,7.58670126 C34.1910447,7.38413844 34.7252422,7.28325893 35.2734869,7.28325893 C38.3040841,7.28325893 40.6559978,8.15741398 42.3300305,9.90572409 C44.0040632,11.6544361 44.8412802,14.1904905 44.8412802,17.5142893 L44.8412802,31.2138061 L42.936471,31.2138061 Z M16.320916,20.3320829 C16.320916,17.5576956 15.8665873,15.5489476 14.9575285,14.3062407 C14.0480684,13.0635339 12.6557837,12.4421804 10.7794704,12.4421804 C9.16363345,12.4421804 7.92948082,13.0707682 7.07821651,14.3279439 C6.22695221,15.5851195 5.80111939,17.2253157 5.80111939,19.2485325 C5.80111939,21.5892585 6.32769117,23.3954437 7.3812361,24.6670881 C8.43478103,25.9391344 9.82706574,26.5749566 11.5588929,26.5749566 C12.9732519,26.5749566 14.1203115,26.0042439 15.0008744,24.8624165 C15.8806346,23.7209911 16.320916,22.2106119 16.320916,20.3320829 L16.320916,20.3320829 Z M22.2954188,18.8148712 C22.2954188,20.6934003 22.0642409,22.4204091 21.6026879,23.9954959 C21.1407335,25.5705826 20.4696756,26.936274 19.5895141,28.0921683 C18.7093525,29.2484644 17.6124617,30.1439207 16.2992431,30.7797429 C14.9860244,31.4155651 13.4781508,31.7334762 11.7752208,31.7334762 C10.4768521,31.7334762 9.31494256,31.4087326 8.29029487,30.7584416 C7.26604852,30.1081507 6.46495303,29.277 5.88740973,28.2657935 L5.88740973,38.5832346 L4.0692922,38.5832346 C3.54994472,38.5832346 3.0446445,38.4895895 2.55419426,38.3014954 C2.06374401,38.1134014 1.63068687,37.846131 1.2554242,37.4996843 C0.880161534,37.1528356 0.577141945,36.7336431 0.346365437,36.2421067 C0.115588929,35.7513741 0,35.1874939 0,34.5516717 L0,20.4188955 C0,18.4824913 0.2235522,16.7048418 0.67105795,15.0867506 C1.1185637,13.4682576 1.81811753,12.080863 2.77052215,10.9249688 C3.72292676,9.76867265 4.93500512,8.87281444 6.40715856,8.23699224 C7.87891066,7.60117003 9.63963508,7.28325893 11.6889305,7.28325893 C13.2473743,7.28325893 14.6757805,7.60840442 15.9745506,8.2586954 C17.2733206,8.90898637 18.3918843,9.76867265 19.3298403,10.8381561 C20.2677963,11.9072377 20.9962474,13.1358777 21.5159962,14.5228704 C22.0353437,15.910265 22.2954188,17.340664 22.2954188,18.8148712 L22.2954188,18.8148712 Z M116.355509,32.5545791 C116.355509,32.3110214 116.315775,32.0871573 116.235103,31.8833888 C116.154833,31.6792183 116.044061,31.5031816 115.901581,31.3564843 C115.759503,31.209787 115.593745,31.0960464 115.403907,31.0152624 C115.214469,30.9348803 115.010583,30.8946893 114.791847,30.8946893 C114.569499,30.8946893 114.362402,30.9348803 114.171359,31.0152624 C113.979514,31.0960464 113.812953,31.209787 113.670875,31.3564843 C113.528396,31.5031816 113.417623,31.6792183 113.337353,31.8833888 C113.256682,32.0871573 113.216948,32.3110214 113.216948,32.5545791 C113.216948,32.7840699 113.253471,32.9990919 113.326115,33.1996452 C113.399161,33.4001985 113.503914,33.5754314 113.640774,33.7257459 C113.777233,33.8764623 113.942188,33.9954277 114.135639,34.0834461 C114.328689,34.1710626 114.547425,34.2148708 114.791847,34.2148708 C115.010583,34.2148708 115.214469,34.1746798 115.403907,34.0942977 C115.593745,34.0135137 115.759503,33.8997731 115.901581,33.7530758 C116.044061,33.6063785 116.154833,33.4315475 116.235103,33.2289847 C116.315775,33.0264219 116.355509,32.8021559 116.355509,32.5545791 L116.355509,32.5545791 Z M116.792981,32.5545791 C116.792981,32.8556099 116.7392,33.1297128 116.631638,33.3768877 C116.524076,33.6240626 116.378386,33.8354674 116.194166,34.0107003 C116.010347,34.1863352 115.79723,34.3225828 115.554413,34.4190413 C115.312399,34.5159017 115.057943,34.5641309 114.791847,34.5641309 C114.496453,34.5641309 114.225943,34.5130883 113.979514,34.411405 C113.733486,34.3093197 113.522376,34.1686511 113.34538,33.9893991 C113.168786,33.8101471 113.029919,33.5979384 112.929983,33.3527731 C112.829645,33.1072058 112.779476,32.8411412 112.779476,32.5545791 C112.779476,32.2535482 112.833257,31.9798473 112.940819,31.7326724 C113.048381,31.4854975 113.194071,31.2740926 113.378291,31.0984578 C113.562109,30.9232249 113.776431,30.7869773 114.020853,30.6905188 C114.264874,30.5936584 114.52214,30.5450272 114.791847,30.5450272 C115.057943,30.5450272 115.312399,30.5936584 115.554413,30.6905188 C115.79723,30.7869773 116.010347,30.9232249 116.194166,31.0984578 C116.378386,31.2740926 116.524076,31.4854975 116.631638,31.7326724 C116.7392,31.9798473 116.792981,32.2535482 116.792981,32.5545791 L116.792981,32.5545791 Z M114.802684,32.4420442 C114.872117,32.4420442 114.93834,32.4392308 115.002155,32.434006 C115.06597,32.4283792 115.121757,32.4135085 115.169117,32.3881882 C115.216075,32.3632697 115.254604,32.3283035 115.283903,32.2836915 C115.313201,32.2386775 115.32765,32.1751757 115.32765,32.0927841 C115.32765,32.0244593 115.312399,31.9706033 115.281093,31.931618 C115.250189,31.8922308 115.211258,31.8616856 115.163498,31.8399824 C115.116138,31.8182793 115.06316,31.8050162 115.004964,31.8001933 C114.946367,31.7945666 114.890178,31.7917532 114.835594,31.7917532 L114.387286,31.7917532 L114.387286,32.4420442 L114.802684,32.4420442 Z M114.387286,33.7048466 L114.015234,33.7048466 L114.015234,31.4802727 L114.873723,31.4802727 C115.147042,31.4802727 115.352935,31.5305115 115.491802,31.6305871 C115.630268,31.7310647 115.699301,31.8938384 115.699301,32.1193102 C115.699301,32.3198634 115.643112,32.4669626 115.529931,32.5602058 C115.41675,32.653449 115.276679,32.7085108 115.108914,32.7265967 L115.743048,33.7048466 L115.322031,33.7048466 L114.736862,32.7539266 L114.387286,32.7539266 L114.387286,33.7048466 Z" id="Fill-3" fill="#FFFFFF" mask="url(#mask-2)"></path>
                            </g>
                        </g>
                    </g>
                </g>
            </g>
        </g>
    </g>
</svg>