<?xml version="1.0" encoding="UTF-8"?>
<svg width="194px" height="40px" viewBox="0 0 194 40" version="1.1" xmlns="http://www.w3.org/2000/svg" xmlns:xlink="http://www.w3.org/1999/xlink">
    <title>logo-wordpress-solid</title>
    <g id="Shared-Design" stroke="none" stroke-width="1" fill="none" fill-rule="evenodd">
        <g id="HG-Concepts---Shared-Page-XL" transform="translate(-423.000000, -3372.000000)" fill="#FFFFFF">
            <g id=".o-apps__full-xl" transform="translate(325.000000, 2975.000000)">
                <g id=".o-features--large-copy" transform="translate(98.000000, 397.500000)">
                    <g id=".a-text--h1">
                        <g id="Group-8">
                            <g id="logo-wordpress-solid">
                                <path d="M110.380389,28.2304928 L110.075994,28.2304928 C108.511108,28.2304928 108.293873,27.8307055 108.293873,25.7868418 L108.293873,16.1463412 L110.380389,16.1463412 C114.900919,16.1463412 115.727037,19.5224086 115.727037,22.143732 C115.727037,24.8539402 114.900919,28.2304928 110.380389,28.2304928 L110.380389,28.2304928 Z M92.036409,22.0545562 L92.036409,16.1463412 L93.8184352,16.1463412 C95.7745908,16.1463412 96.6441938,17.5231813 96.6441938,19.1226213 C96.6441938,20.6777161 95.7745908,22.0545562 93.8184352,22.0545562 L92.036409,22.0545562 Z M110.250029,14.8135553 L102.468796,14.8135553 L102.468796,15.6572811 C104.902906,15.6572811 105.29408,16.1903954 105.29408,19.3450273 L105.29408,25.0319037 C105.29408,28.1859534 104.902906,28.7636071 102.468796,28.7636071 C100.59999,28.4970499 99.3391179,27.4749725 97.6001969,25.5202846 L95.601031,23.2993306 C98.2958602,22.8102705 99.7302921,21.0776004 99.7302921,19.1226213 C99.7302921,16.6794555 97.6874515,14.8135553 93.862015,14.8135553 L86.2113319,14.8135553 L86.2113319,15.6572811 C88.6454417,15.6572811 89.0366158,16.1903954 89.0366158,19.3450273 L89.0366158,25.0319037 C89.0366158,28.1859534 88.6454417,28.7636071 86.2113319,28.7636071 L86.2113319,29.6073329 L94.8616929,29.6073329 L94.8616929,28.7636071 C92.4275831,28.7636071 92.036409,28.1859534 92.036409,25.0319037 L92.036409,23.4325607 L92.7751775,23.4325607 L97.6001969,29.6073329 L110.250029,29.6073329 C116.46628,29.6073329 119.161109,26.2312655 119.161109,22.1879803 C119.161109,18.1454715 116.46628,14.8135553 110.250029,14.8135553 L110.250029,14.8135553 Z" id="Fill-1"></path>
                                <path d="M61.731571,24.259509 L64.7561682,15.1563655 C65.6331961,12.5240867 65.2386293,11.7656863 62.4330976,11.7656863 L62.4330976,10.872992 L70.6743828,10.872992 L70.6743828,11.7656863 C67.9127983,11.7656863 67.2552189,12.4350122 66.1592213,15.6922745 L61.1615029,30.9522802 L60.5920093,30.9522802 L56.1204119,16.9859991 L51.5617819,30.9522802 L50.9918096,30.9522802 L46.1261241,15.6922745 C45.0740737,12.4350122 44.3725471,11.7656863 41.8300281,11.7656863 L41.8300281,10.872992 L51.5617819,10.872992 L51.5617819,11.7656863 C48.97522,11.7656863 48.2736934,12.3901825 49.1947642,15.1563655 L52.1312756,24.259509 L56.5589258,10.872992 L57.3919108,10.872992 L61.731571,24.259509 Z" id="Fill-3"></path>
                                <path d="M76.7970621,16.1495953 C72.7761795,16.1495953 71.3772049,19.724977 71.3772049,22.5250247 C71.3772049,25.3687319 72.7761795,28.901301 76.7970621,28.901301 C80.862337,28.901301 82.2608343,25.3687319 82.2608343,22.5250247 C82.2608343,19.724977 80.862337,16.1495953 76.7970621,16.1495953 M76.7970621,30.2797773 C71.9894353,30.2797773 68.0553322,26.7903033 68.0553322,22.5250247 C68.0553322,18.3034998 71.9894353,14.8135553 76.7970621,14.8135553 C81.6051663,14.8135553 85.5388875,18.3034998 85.5388875,22.5250247 C85.5388875,26.7903033 81.6051663,30.2797773 76.7970621,30.2797773" id="Fill-6"></path>
                                <path d="M128.935919,13.0166978 L126.429383,13.0166978 L126.429383,20.583007 L128.935919,20.583007 C131.398754,20.583007 132.541809,18.8873377 132.541809,16.843778 C132.541809,14.7566251 131.398754,13.0166978 128.935919,13.0166978 M129.9034,29.4102885 L129.9034,30.2797773 L119.833554,30.2797773 L119.833554,29.4102885 C122.779889,29.4102885 123.307474,28.6711994 123.307474,24.322426 L123.307474,17.3655662 C123.307474,13.0166978 122.779889,12.3212968 119.833554,12.3212968 L119.833554,11.4513331 L128.935919,11.4513331 C133.465204,11.4513331 135.97222,13.7562619 135.97222,16.843778 C135.97222,19.8441078 133.465204,22.1920598 128.935919,22.1920598 L126.429383,22.1920598 L126.429383,24.322426 C126.429383,28.6711994 126.957065,29.4102885 129.9034,29.4102885" id="Fill-8"></path>
                                <path d="M142.484111,22.0545562 L142.484111,16.1462441 L144.270504,16.1462441 C146.231357,16.1462441 147.103091,17.5231813 147.103091,19.1225243 C147.103091,20.6777161 146.231357,22.0545562 144.270504,22.0545562 L142.484111,22.0545562 Z M165.578633,25.431691 L165.360771,26.2312655 C164.968639,27.6973784 164.489037,28.2304928 161.395377,28.2304928 L160.785001,28.2304928 C158.519483,28.2304928 158.12716,27.6973784 158.12716,24.5428436 L158.12716,22.499465 C161.526056,22.499465 161.787509,22.8101735 161.787509,25.1204974 L162.615652,25.1204974 L162.615652,18.5007193 L161.787509,18.5007193 C161.787509,20.8110432 161.526056,21.1216546 158.12716,21.1216546 L158.12716,16.1462441 L160.523453,16.1462441 C163.617684,16.1462441 164.096809,16.6793585 164.489037,18.1454715 L164.707185,18.9891972 L165.404077,18.9891972 L165.099318,14.8135553 L152.287904,14.8135553 L152.287904,15.657184 C154.727979,15.657184 155.120111,16.1902984 155.120111,19.3449302 L155.120111,25.0319037 C155.120111,27.9172614 154.786798,28.6441561 152.863064,28.7477903 C151.034507,28.4631845 149.779016,27.4461529 148.061532,25.5202846 L146.056801,23.2992336 C148.7589,22.8101735 150.196752,21.0776004 150.196752,19.1225243 C150.196752,16.6793585 148.149001,14.8135553 144.31419,14.8135553 L136.644664,14.8135553 L136.644664,15.657184 C139.084739,15.657184 139.476872,16.1902984 139.476872,19.3449302 L139.476872,25.0319037 C139.476872,28.1859534 139.084739,28.7636071 136.644664,28.7636071 L136.644664,29.6073329 L145.316222,29.6073329 L145.316222,28.7636071 C142.876243,28.7636071 142.484111,28.1859534 142.484111,25.0319037 L142.484111,23.4324637 L143.224594,23.4324637 L148.061532,29.6073329 L165.970766,29.6073329 L166.23222,25.431691 L165.578633,25.431691 Z" id="Fill-10"></path>
                                <path d="M174.367106,30.2797773 C172.624664,30.2797773 171.099717,29.375064 170.446373,28.8149227 C170.228686,29.0305861 169.836699,29.6768233 169.749833,30.2797773 L168.921997,30.2797773 L168.921997,24.3348277 L169.792933,24.3348277 C170.141821,27.1780644 172.145145,28.8582059 174.715423,28.8582059 C176.109168,28.8582059 177.242031,28.0826836 177.242031,26.7903033 C177.242031,25.6704912 176.239894,24.8085907 174.454066,23.9903497 L171.971224,22.8271604 C170.228686,22.0080726 168.921997,20.5864071 168.921997,18.6911668 C168.921997,16.6233583 170.882126,14.8572149 173.583131,14.8572149 C175.020546,14.8572149 176.239894,15.3742611 176.980675,15.9771211 C177.198266,15.8046469 177.415952,15.3304134 177.547154,14.8135553 L178.374324,14.8135553 L178.374324,19.8974512 L177.459623,19.8974512 C177.154595,17.8724554 176.022208,16.1923139 173.713761,16.1923139 C172.494033,16.1923139 171.361074,16.8817403 171.361074,17.9590219 C171.361074,19.0788339 172.275871,19.6817879 174.367106,20.6296903 L176.762512,21.7928797 C178.853843,22.7835008 179.681108,24.3780168 179.681108,25.6704912 C179.681108,28.3843488 177.285226,30.2797773 174.367106,30.2797773" id="Fill-12"></path>
                                <path d="M187.815995,30.2797773 C186.073552,30.2797773 184.548606,29.375064 183.895261,28.8149227 C183.677575,29.0305861 183.285587,29.6768233 183.198627,30.2797773 L182.370886,30.2797773 L182.370886,24.3348277 L183.241822,24.3348277 C183.59071,27.1780644 185.594033,28.8582059 188.164312,28.8582059 C189.558057,28.8582059 190.69092,28.0826836 190.69092,26.7903033 C190.69092,25.6704912 189.688783,24.8085907 187.902955,23.9903497 L185.420017,22.8271604 C183.677575,22.0080726 182.370886,20.5864071 182.370886,18.6911668 C182.370886,16.6233583 184.33092,14.8572149 187.032019,14.8572149 C188.469434,14.8572149 189.688783,15.3742611 190.429563,15.9771211 C190.647154,15.8046469 190.864841,15.3304134 190.995472,14.8135553 L191.823213,14.8135553 L191.823213,19.8974512 L190.908511,19.8974512 C190.603389,17.8724554 189.471096,16.1923139 187.16265,16.1923139 C185.942921,16.1923139 184.809963,16.8817403 184.809963,17.9590219 C184.809963,19.0788339 185.724664,19.6817879 187.815995,20.6296903 L190.211401,21.7928797 C192.302732,22.7835008 193.129997,24.3780168 193.129997,25.6704912 C193.129997,28.3843488 190.734115,30.2797773 187.815995,30.2797773" id="Fill-14"></path>
                                <path d="M19.4566929,-1.91846539e-13 C8.71108942,-1.91846539e-13 -1.70530257e-13,8.71118386 -1.70530257e-13,19.4569762 C-1.70530257e-13,30.202674 8.71108942,38.9138579 19.4566929,38.9138579 C30.2022963,38.9138579 38.9133857,30.202674 38.9133857,19.4569762 C38.9133857,8.71118386 30.2022963,-1.91846539e-13 19.4566929,-1.91846539e-13 M19.4566929,1.16740913 C21.9261758,1.16740913 24.3213382,1.65082341 26.5754143,2.60424215 C27.658776,3.06253664 28.7038915,3.62980946 29.6815801,4.29028992 C30.6502973,4.94472652 31.5613146,5.69633704 32.3891344,6.52434571 C33.2171431,7.35216552 33.9687536,8.26318281 34.6231902,9.23190008 C35.2836707,10.2095887 35.8509435,11.2547041 36.309238,12.3381603 C37.2625623,14.5922363 37.7459766,16.9873987 37.7459766,19.4569762 C37.7459766,21.9265536 37.2625623,24.3216216 36.309238,26.5756976 C35.8509435,27.6591538 35.2836707,28.7042692 34.6231902,29.6820522 C33.9687536,30.6506751 33.2171431,31.5616924 32.3891344,32.3895122 C31.5613146,33.2175209 30.6502973,33.9691314 29.6815801,34.6236624 C28.7038915,35.2841429 27.658776,35.8514157 26.5754143,36.3096157 C24.3213382,37.2630345 21.9261758,37.7464488 19.4566929,37.7464488 C16.9872099,37.7464488 14.5920475,37.2630345 12.3380658,36.3096157 C11.2546097,35.8514157 10.2094943,35.2841429 9.23180564,34.6236624 C8.26308838,33.9691314 7.35207108,33.2175209 6.52425128,32.3895122 C5.69624261,31.5616924 4.94463209,30.6506751 4.29019549,29.6820522 C3.62971503,28.7042692 3.06244221,27.6591538 2.60414772,26.5756976 C1.65082341,24.3216216 1.16740913,21.9265536 1.16740913,19.4569762 C1.16740913,16.9873987 1.65082341,14.5922363 2.60414772,12.3381603 C3.06244221,11.2547041 3.62971503,10.2095887 4.29019549,9.23190008 C4.94463209,8.26318281 5.69624261,7.35216552 6.52425128,6.52434571 C7.35207108,5.69633704 8.26308838,4.94472652 9.23180564,4.29028992 C10.2094943,3.62980946 11.2546097,3.06253664 12.3380658,2.60424215 C14.5920475,1.65082341 16.9872099,1.16740913 19.4566929,1.16740913" id="Fill-16"></path>
                                <path d="M33.5750328,12.3947456 C33.6442147,12.908715 33.6835056,13.4601887 33.6835056,14.0541486 C33.6835056,15.6911805 33.3767926,17.5321834 32.4559017,19.834424 L27.526781,34.0860765 C32.3247756,31.2887597 35.5514185,26.0906946 35.5514185,20.1369027 C35.5514185,17.3310323 34.8344077,14.6932264 33.5750328,12.3947456 L33.5750328,12.3947456 Z M19.6963418,21.5486266 L14.8533225,35.6185851 C16.2996579,36.0441043 17.8287108,36.2761801 19.4127521,36.2761801 C21.2921327,36.2761801 23.0949996,35.9518004 24.7724742,35.3612244 C24.7292354,35.2921374 24.6893806,35.2188207 24.6565756,35.1387362 L19.6963418,21.5486266 Z M30.307689,19.3229926 C30.307689,17.3278364 29.5910542,15.9469432 28.9772523,14.8722885 C28.1591004,13.5423411 27.391989,12.4170226 27.391989,11.0871692 C27.391989,9.6039145 28.5167598,8.22292731 30.1021171,8.22292731 C30.173649,8.22292731 30.241515,8.23157493 30.3110729,8.23599273 C27.4397396,5.60514257 23.6142403,3.99884729 19.4127521,3.99884729 C13.7743283,3.99884729 8.81418844,6.89194591 5.92837949,11.272717 C6.30737632,11.2846545 6.6643778,11.2922682 6.96714288,11.2922682 C8.65476914,11.2922682 11.2683621,11.0871692 11.2683621,11.0871692 C12.1379305,11.0362234 12.2407635,12.3143792 11.3715711,12.4170226 C11.3715711,12.4170226 10.4970209,12.5194781 9.52471351,12.5704239 L15.4014203,30.0515862 L18.9337422,19.4594746 L16.4195043,12.5704239 C15.5499359,12.5194781 14.7267082,12.4170226 14.7267082,12.4170226 C13.8568578,12.3657009 13.9588448,11.0362234 14.8291652,11.0871692 C14.8291652,11.0871692 17.4937987,11.2922682 19.0795319,11.2922682 C20.7671582,11.2922682 23.3813152,11.0871692 23.3813152,11.0871692 C24.2512595,11.0362234 24.3536225,12.3143792 23.4840541,12.4170226 C23.4840541,12.4170226 22.6086579,12.5194781 21.6371026,12.5704239 L27.4695367,29.918394 L29.1344156,24.6429703 C29.8740798,22.3373458 30.307689,20.7038858 30.307689,19.3229926 L30.307689,19.3229926 Z M3.27408571,20.1369027 C3.27408571,26.5245795 6.98603632,32.0454264 12.3701037,34.6610492 L4.67154252,13.5690359 C3.77603091,15.5760355 3.27408571,17.7971577 3.27408571,20.1369027 L3.27408571,20.1369027 Z" id="Fill-19"></path>
                            </g>
                        </g>
                    </g>
                </g>
            </g>
        </g>
    </g>
</svg>